<?xml version="1.0" encoding="UTF-8" standalone="no"?>
<svg width="2289px" height="1279px" viewBox="0 0 2289 1279" version="1.1" xmlns="http://www.w3.org/2000/svg" xmlns:xlink="http://www.w3.org/1999/xlink" xmlns:sketch="http://www.bohemiancoding.com/sketch/ns">
    <!-- Generator: Sketch 3.3.2 (12043) - http://www.bohemiancoding.com/sketch -->
    <title>Group</title>
    <desc>Created with Sketch.</desc>
    <defs></defs>
    <g id="Page-1" stroke="none" stroke-width="1" fill="none" fill-rule="evenodd" sketch:type="MSPage">
        <g id="Artboard-10" sketch:type="MSArtboardGroup" transform="translate(-470.000000, -524.000000)">
            <g id="Group" sketch:type="MSLayerGroup" transform="translate(471.000000, 525.000000)">
                <g id="Group-Copy-2" stroke="#979797" sketch:type="MSShapeGroup">
                    <ellipse id="Oval-2" fill="#D8D8D8" cx="331.371859" cy="71.4519651" rx="30.7547739" ry="30.7459971"></ellipse>
                    <ellipse id="Oval-2-Copy" fill="#D8D8D8" cx="621.376382" cy="117.137918" rx="10.6125628" ry="10.6095342"></ellipse>
                    <ellipse id="Oval-2-Copy-14" fill="#D8D8D8" cx="754.574874" cy="253.329694" rx="12.1286432" ry="12.125182"></ellipse>
                    <ellipse id="Oval-2-Copy-3" fill="#D8D8D8" cx="615.745226" cy="227.13064" rx="4.98140704" ry="4.97998544"></ellipse>
                    <ellipse id="Oval-2-Copy-8" fill="#D8D8D8" cx="439.446734" cy="4.97998544" rx="4.98140704" ry="4.97998544"></ellipse>
                    <ellipse id="Oval-2-Copy-9" fill="#D8D8D8" cx="530.411558" cy="373.065866" rx="4.98140704" ry="4.97998544"></ellipse>
                    <ellipse id="Oval-2-Copy-10" fill="#D8D8D8" cx="530.411558" cy="373.065866" rx="4.98140704" ry="4.97998544"></ellipse>
                    <ellipse id="Oval-2-Copy-13" fill="#D8D8D8" cx="370.140201" cy="145.285662" rx="4.98140704" ry="4.97998544"></ellipse>
                    <ellipse id="Oval-2-Copy-12" fill="#D8D8D8" cx="284.806533" cy="291.220888" rx="4.98140704" ry="4.97998544"></ellipse>
                    <ellipse id="Oval-2-Copy-11" fill="#D8D8D8" cx="284.806533" cy="291.220888" rx="4.98140704" ry="4.97998544"></ellipse>
                    <ellipse id="Oval-2-Copy-22" fill="#D8D8D8" cx="163.520101" cy="18.404294" rx="4.98140704" ry="4.97998544"></ellipse>
                    <ellipse id="Oval-2-Copy-21" fill="#D8D8D8" cx="163.520101" cy="18.404294" rx="4.98140704" ry="4.97998544"></ellipse>
                    <ellipse id="Oval-2-Copy-4" fill="#F2EFDC" cx="461.754774" cy="521.382824" rx="73.638191" ry="73.6171761"></ellipse>
                    <ellipse id="Oval-2-Copy-20" fill="#D8D8D8" cx="121.286432" cy="471.149927" rx="30.7547739" ry="30.7459971"></ellipse>
                    <ellipse id="Oval-2-Copy-19" fill="#D8D8D8" cx="229.144724" cy="350.980713" rx="12.1286432" ry="12.125182"></ellipse>
                    <ellipse id="Oval-2-Copy-18" fill="#D8D8D8" cx="90.3150754" cy="324.781659" rx="4.98140704" ry="4.97998544"></ellipse>
                    <ellipse id="Oval-2-Copy-17" fill="#D8D8D8" cx="4.98140704" cy="470.716885" rx="4.98140704" ry="4.97998544"></ellipse>
                    <ellipse id="Oval-2-Copy-16" fill="#D8D8D8" cx="4.98140704" cy="470.716885" rx="4.98140704" ry="4.97998544"></ellipse>
                    <ellipse id="Oval-2-Copy-15" fill="#5DBEA9" cx="95.2964824" cy="154.379549" rx="73.638191" ry="73.6171761"></ellipse>
                    <ellipse id="Oval-2-Copy-7" fill="#D8D8D8" cx="827.130151" cy="44.819869" rx="34.8698492" ry="34.8598981"></ellipse>
                </g>
                <g id="Group-Copy-3" transform="translate(1380.000000, 594.500000) rotate(-137.000000) translate(-1380.000000, -594.500000) translate(949.000000, 297.000000)" stroke="#979797" sketch:type="MSShapeGroup">
                    <ellipse id="Oval-2" fill="#D8D8D8" cx="331.371859" cy="71.4519651" rx="30.7547739" ry="30.7459971"></ellipse>
                    <ellipse id="Oval-2-Copy" fill="#D8D8D8" cx="621.376382" cy="117.137918" rx="10.6125628" ry="10.6095342"></ellipse>
                    <ellipse id="Oval-2-Copy-14" fill="#D8D8D8" cx="754.574874" cy="253.329694" rx="12.1286432" ry="12.125182"></ellipse>
                    <ellipse id="Oval-2-Copy-3" fill="#D8D8D8" cx="615.745226" cy="227.13064" rx="4.98140704" ry="4.97998544"></ellipse>
                    <ellipse id="Oval-2-Copy-8" fill="#D8D8D8" cx="439.446734" cy="4.97998544" rx="4.98140704" ry="4.97998544"></ellipse>
                    <ellipse id="Oval-2-Copy-9" fill="#D8D8D8" cx="530.411558" cy="373.065866" rx="4.98140704" ry="4.97998544"></ellipse>
                    <ellipse id="Oval-2-Copy-10" fill="#D8D8D8" cx="530.411558" cy="373.065866" rx="4.98140704" ry="4.97998544"></ellipse>
                    <ellipse id="Oval-2-Copy-13" fill="#D8D8D8" cx="370.140201" cy="145.285662" rx="4.98140704" ry="4.97998544"></ellipse>
                    <ellipse id="Oval-2-Copy-12" fill="#D8D8D8" cx="284.806533" cy="291.220888" rx="4.98140704" ry="4.97998544"></ellipse>
                    <ellipse id="Oval-2-Copy-11" fill="#D8D8D8" cx="284.806533" cy="291.220888" rx="4.98140704" ry="4.97998544"></ellipse>
                    <ellipse id="Oval-2-Copy-22" fill="#D8D8D8" cx="163.520101" cy="18.404294" rx="4.98140704" ry="4.97998544"></ellipse>
                    <ellipse id="Oval-2-Copy-21" fill="#D8D8D8" cx="163.520101" cy="18.404294" rx="4.98140704" ry="4.97998544"></ellipse>
                    <ellipse id="Oval-2-Copy-4" fill="#F2EFDC" cx="461.754774" cy="521.382824" rx="73.638191" ry="73.6171761"></ellipse>
                    <ellipse id="Oval-2-Copy-20" fill="#D8D8D8" cx="121.286432" cy="471.149927" rx="30.7547739" ry="30.7459971"></ellipse>
                    <ellipse id="Oval-2-Copy-19" fill="#D8D8D8" cx="229.144724" cy="350.980713" rx="12.1286432" ry="12.125182"></ellipse>
                    <ellipse id="Oval-2-Copy-18" fill="#D8D8D8" cx="90.3150754" cy="324.781659" rx="4.98140704" ry="4.97998544"></ellipse>
                    <ellipse id="Oval-2-Copy-17" fill="#D8D8D8" cx="4.98140704" cy="470.716885" rx="4.98140704" ry="4.97998544"></ellipse>
                    <ellipse id="Oval-2-Copy-16" fill="#D8D8D8" cx="4.98140704" cy="470.716885" rx="4.98140704" ry="4.97998544"></ellipse>
                    <ellipse id="Oval-2-Copy-15" fill="#5DBEA9" cx="95.2964824" cy="154.379549" rx="73.638191" ry="73.6171761"></ellipse>
                    <ellipse id="Oval-2-Copy-7" fill="#D8D8D8" cx="827.130151" cy="44.819869" rx="34.8698492" ry="34.8598981"></ellipse>
                </g>
                <g id="Group-Copy-4" transform="translate(1380.000000, 594.500000) rotate(-137.000000) translate(-1380.000000, -594.500000) translate(949.000000, 297.000000)" stroke="#979797" sketch:type="MSShapeGroup">
                    <ellipse id="Oval-2" fill="#D8D8D8" cx="331.371859" cy="71.4519651" rx="30.7547739" ry="30.7459971"></ellipse>
                    <ellipse id="Oval-2-Copy" fill="#D8D8D8" cx="621.376382" cy="117.137918" rx="10.6125628" ry="10.6095342"></ellipse>
                    <ellipse id="Oval-2-Copy-14" fill="#D8D8D8" cx="754.574874" cy="253.329694" rx="12.1286432" ry="12.125182"></ellipse>
                    <ellipse id="Oval-2-Copy-3" fill="#D8D8D8" cx="615.745226" cy="227.13064" rx="4.98140704" ry="4.97998544"></ellipse>
                    <ellipse id="Oval-2-Copy-8" fill="#D8D8D8" cx="439.446734" cy="4.97998544" rx="4.98140704" ry="4.97998544"></ellipse>
                    <ellipse id="Oval-2-Copy-9" fill="#D8D8D8" cx="530.411558" cy="373.065866" rx="4.98140704" ry="4.97998544"></ellipse>
                    <ellipse id="Oval-2-Copy-10" fill="#D8D8D8" cx="530.411558" cy="373.065866" rx="4.98140704" ry="4.97998544"></ellipse>
                    <ellipse id="Oval-2-Copy-13" fill="#D8D8D8" cx="370.140201" cy="145.285662" rx="4.98140704" ry="4.97998544"></ellipse>
                    <ellipse id="Oval-2-Copy-12" fill="#D8D8D8" cx="284.806533" cy="291.220888" rx="4.98140704" ry="4.97998544"></ellipse>
                    <ellipse id="Oval-2-Copy-11" fill="#D8D8D8" cx="284.806533" cy="291.220888" rx="4.98140704" ry="4.97998544"></ellipse>
                    <ellipse id="Oval-2-Copy-22" fill="#D8D8D8" cx="163.520101" cy="18.404294" rx="4.98140704" ry="4.97998544"></ellipse>
                    <ellipse id="Oval-2-Copy-21" fill="#D8D8D8" cx="163.520101" cy="18.404294" rx="4.98140704" ry="4.97998544"></ellipse>
                    <ellipse id="Oval-2-Copy-4" fill="#F2EFDC" cx="461.754774" cy="521.382824" rx="73.638191" ry="73.6171761"></ellipse>
                    <ellipse id="Oval-2-Copy-20" fill="#D8D8D8" cx="121.286432" cy="471.149927" rx="30.7547739" ry="30.7459971"></ellipse>
                    <ellipse id="Oval-2-Copy-19" fill="#D8D8D8" cx="229.144724" cy="350.980713" rx="12.1286432" ry="12.125182"></ellipse>
                    <ellipse id="Oval-2-Copy-18" fill="#D8D8D8" cx="90.3150754" cy="324.781659" rx="4.98140704" ry="4.97998544"></ellipse>
                    <ellipse id="Oval-2-Copy-17" fill="#D8D8D8" cx="4.98140704" cy="470.716885" rx="4.98140704" ry="4.97998544"></ellipse>
                    <ellipse id="Oval-2-Copy-16" fill="#D8D8D8" cx="4.98140704" cy="470.716885" rx="4.98140704" ry="4.97998544"></ellipse>
                    <ellipse id="Oval-2-Copy-15" fill="#5DBEA9" cx="95.2964824" cy="154.379549" rx="73.638191" ry="73.6171761"></ellipse>
                    <ellipse id="Oval-2-Copy-7" fill="#D8D8D8" cx="827.130151" cy="44.819869" rx="34.8698492" ry="34.8598981"></ellipse>
                </g>
                <g id="Group-Copy-2" transform="translate(540.000000, 936.000000)" sketch:type="MSShapeGroup">
                    <ellipse id="Oval-2" stroke="#979797" fill="#D8D8D8" cx="296.492334" cy="55.9646018" rx="19.4735945" ry="19.4778761"></ellipse>
                    <ellipse id="Oval-2-Copy-14" stroke="#979797" fill="#D8D8D8" cx="564.459966" cy="171.185841" rx="7.67972743" ry="7.68141593"></ellipse>
                    <ellipse id="Oval-2-Copy-3" stroke="#979797" fill="#D8D8D8" cx="476.554514" cy="154.588496" rx="3.15417376" ry="3.15486726"></ellipse>
                    <ellipse id="Oval-2-Copy-8" stroke="#979797" fill="#D8D8D8" cx="364.924191" cy="13.8539823" rx="3.15417376" ry="3.15486726"></ellipse>
                    <ellipse id="Oval-2-Copy-9" stroke="#979797" fill="#D8D8D8" cx="422.522147" cy="247.039823" rx="3.15417376" ry="3.15486726"></ellipse>
                    <ellipse id="Oval-2-Copy-10" stroke="#979797" fill="#D8D8D8" cx="422.522147" cy="247.039823" rx="3.15417376" ry="3.15486726"></ellipse>
                    <ellipse id="Oval-2-Copy-13" stroke="#979797" fill="#D8D8D8" cx="321.040034" cy="102.738938" rx="3.15417376" ry="3.15486726"></ellipse>
                    <ellipse id="Oval-2-Copy-12" stroke="#979797" fill="#D8D8D8" cx="267.007666" cy="195.190265" rx="3.15417376" ry="3.15486726"></ellipse>
                    <ellipse id="Oval-2-Copy-11" stroke="#979797" fill="#D8D8D8" cx="267.007666" cy="195.190265" rx="3.15417376" ry="3.15486726"></ellipse>
                    <ellipse id="Oval-2-Copy-22" stroke="#979797" fill="#D8D8D8" cx="190.210392" cy="22.3584071" rx="3.15417376" ry="3.15486726"></ellipse>
                    <ellipse id="Oval-2-Copy-21" stroke="#979797" fill="#D8D8D8" cx="190.210392" cy="22.3584071" rx="3.15417376" ry="3.15486726"></ellipse>
                    <ellipse id="Oval-2-Copy-4" stroke="#979797" fill="#F25050" cx="479.708688" cy="46.6371681" rx="46.6269165" ry="46.6371681"></ellipse>
                    <ellipse id="Oval-2-Copy-20" fill="#F2C48D" cx="163.468484" cy="309.176991" rx="19.4735945" ry="19.4778761"></ellipse>
                    <ellipse id="Oval-2-Copy-19" stroke="#979797" fill="#D8D8D8" cx="231.763203" cy="233.048673" rx="7.67972743" ry="7.68141593"></ellipse>
                    <ellipse id="Oval-2-Copy-18" stroke="#979797" fill="#D8D8D8" cx="143.857751" cy="216.451327" rx="3.15417376" ry="3.15486726"></ellipse>
                    <ellipse id="Oval-2-Copy-17" stroke="#979797" fill="#D8D8D8" cx="89.8253833" cy="308.902655" rx="3.15417376" ry="3.15486726"></ellipse>
                    <ellipse id="Oval-2-Copy-16" stroke="#979797" fill="#D8D8D8" cx="89.8253833" cy="308.902655" rx="3.15417376" ry="3.15486726"></ellipse>
                    <ellipse id="Oval-2-Copy-15" stroke="#979797" fill="#EF7247" cx="147.011925" cy="108.5" rx="46.6269165" ry="46.6371681"></ellipse>
                    <ellipse id="Oval-2-Copy-6" stroke="#979797" fill="#F2EC99" cx="616.160988" cy="313.154867" rx="27.8390119" ry="27.8451327"></ellipse>
                    <ellipse id="Oval-2-Copy-7" stroke="#979797" fill="#D8D8D8" cx="9.05110733" cy="249.920354" rx="9.05110733" ry="9.05309735"></ellipse>
                </g>
                <g id="Group-Copy-5" transform="translate(2117.000000, 642.500000) rotate(99.000000) translate(-2117.000000, -642.500000) translate(1795.000000, 472.000000)" sketch:type="MSShapeGroup">
                    <ellipse id="Oval-2" stroke="#979797" fill="#D8D8D8" cx="296.492334" cy="55.9646018" rx="19.4735945" ry="19.4778761"></ellipse>
                    <ellipse id="Oval-2-Copy-14" stroke="#979797" fill="#D8D8D8" cx="564.459966" cy="171.185841" rx="7.67972743" ry="7.68141593"></ellipse>
                    <ellipse id="Oval-2-Copy-3" stroke="#979797" fill="#D8D8D8" cx="476.554514" cy="154.588496" rx="3.15417376" ry="3.15486726"></ellipse>
                    <ellipse id="Oval-2-Copy-8" stroke="#979797" fill="#D8D8D8" cx="364.924191" cy="13.8539823" rx="3.15417376" ry="3.15486726"></ellipse>
                    <ellipse id="Oval-2-Copy-9" stroke="#979797" fill="#D8D8D8" cx="422.522147" cy="247.039823" rx="3.15417376" ry="3.15486726"></ellipse>
                    <ellipse id="Oval-2-Copy-10" stroke="#979797" fill="#D8D8D8" cx="422.522147" cy="247.039823" rx="3.15417376" ry="3.15486726"></ellipse>
                    <ellipse id="Oval-2-Copy-13" stroke="#979797" fill="#D8D8D8" cx="321.040034" cy="102.738938" rx="3.15417376" ry="3.15486726"></ellipse>
                    <ellipse id="Oval-2-Copy-12" stroke="#979797" fill="#D8D8D8" cx="267.007666" cy="195.190265" rx="3.15417376" ry="3.15486726"></ellipse>
                    <ellipse id="Oval-2-Copy-11" stroke="#979797" fill="#D8D8D8" cx="267.007666" cy="195.190265" rx="3.15417376" ry="3.15486726"></ellipse>
                    <ellipse id="Oval-2-Copy-22" stroke="#979797" fill="#D8D8D8" cx="190.210392" cy="22.3584071" rx="3.15417376" ry="3.15486726"></ellipse>
                    <ellipse id="Oval-2-Copy-21" stroke="#979797" fill="#D8D8D8" cx="190.210392" cy="22.3584071" rx="3.15417376" ry="3.15486726"></ellipse>
                    <ellipse id="Oval-2-Copy-4" stroke="#979797" fill="#F25050" cx="479.708688" cy="46.6371681" rx="46.6269165" ry="46.6371681"></ellipse>
                    <ellipse id="Oval-2-Copy-20" fill="#F2C48D" cx="163.468484" cy="309.176991" rx="19.4735945" ry="19.4778761"></ellipse>
                    <ellipse id="Oval-2-Copy-19" stroke="#979797" fill="#D8D8D8" cx="231.763203" cy="233.048673" rx="7.67972743" ry="7.68141593"></ellipse>
                    <ellipse id="Oval-2-Copy-18" stroke="#979797" fill="#D8D8D8" cx="143.857751" cy="216.451327" rx="3.15417376" ry="3.15486726"></ellipse>
                    <ellipse id="Oval-2-Copy-17" stroke="#979797" fill="#D8D8D8" cx="89.8253833" cy="308.902655" rx="3.15417376" ry="3.15486726"></ellipse>
                    <ellipse id="Oval-2-Copy-16" stroke="#979797" fill="#D8D8D8" cx="89.8253833" cy="308.902655" rx="3.15417376" ry="3.15486726"></ellipse>
                    <ellipse id="Oval-2-Copy-15" stroke="#979797" fill="#EF7247" cx="147.011925" cy="108.5" rx="46.6269165" ry="46.6371681"></ellipse>
                    <ellipse id="Oval-2-Copy-6" stroke="#979797" fill="#F2EC99" cx="616.160988" cy="313.154867" rx="27.8390119" ry="27.8451327"></ellipse>
                    <ellipse id="Oval-2-Copy-7" stroke="#979797" fill="#D8D8D8" cx="9.05110733" cy="249.920354" rx="9.05110733" ry="9.05309735"></ellipse>
                </g>
            </g>
        </g>
    </g>
</svg>